<?xml version="1.0" encoding="utf-8"?>
<svg viewBox="0 0 500 500" xmlns="http://www.w3.org/2000/svg">
  <g transform="matrix(0.021288, 0, 0, -0.024222, 119.457024, 356.685791)" fill="#000000" stroke="none" style="">
    <path d="M 6643.754 12851.425 C 6627.905 12847.425 6591.677 12830.425 6564.506 12813.425 C 6536.202 12796.425 6443.368 12752.425 6357.327 12716.425 C 6224.868 12659.425 6189.772 12640.425 6130.901 12588.425 C 6000.707 12470.425 5962.215 12360.425 5961.083 12101.425 C 5961.083 11905.425 5973.536 11846.425 6041.463 11716.425 C 6091.277 11621.425 6091.277 11581.425 6042.596 11510.425 C 6021.085 11480.425 5970.14 11408.425 5929.383 11350.425 C 5785.603 11145.425 5751.639 11063.425 5751.639 10931.425 C 5751.639 10876.425 5759.564 10841.425 5777.678 10801.425 C 5826.36 10697.425 5969.007 10536.425 6053.917 10490.425 L 6093.541 10468.425 L 6030.142 10419.425 C 5929.383 10341.425 5876.173 10241.425 5876.173 10129.425 C 5876.173 10070.425 5890.891 10041.425 5935.044 10016.425 C 5954.29 10005.425 5980.329 9984.425 5992.782 9970.425 C 6014.292 9944.425 6014.292 9943.425 5989.386 9845.425 C 5975.8 9790.425 5949.761 9699.425 5931.647 9641.425 C 5913.533 9583.425 5894.287 9493.425 5887.494 9441.425 C 5872.777 9314.425 5872.777 8892.425 5888.626 8795.425 C 5927.119 8552.425 6085.616 8298.425 6232.793 8245.425 C 6292.795 8223.425 6293.928 8229.425 6209.018 8080.425 C 6125.241 7932.425 5973.536 7595.425 5938.44 7481.425 C 5922.59 7429.425 5904.476 7346.425 5898.816 7298.425 C 5881.834 7167.425 5872.777 6191.425 5888.626 6116.425 C 5905.608 6030.425 5964.479 5929.425 6056.181 5828.425 C 6100.334 5780.425 6136.562 5738.425 6136.562 5735.425 C 6136.562 5732.425 6120.712 5716.425 6101.466 5698.425 C 6015.425 5618.425 5932.779 5488.425 5880.702 5351.425 C 5853.531 5277.425 5849.002 5250.425 5849.002 5141.425 C 5847.87 5023.425 5850.134 5013.425 5879.569 4962.425 C 5897.683 4933.425 5925.987 4892.425 5942.969 4870.425 C 6008.632 4791.425 6008.632 4790.425 5945.233 4620.425 C 5800.321 4228.425 5762.96 4025.425 5760.696 3608.425 C 5758.432 3335.425 5767.489 3291.425 5872.777 3105.425 C 5984.857 2906.425 5983.725 2868.425 5864.852 2705.425 C 5765.225 2570.425 5750.507 2530.425 5743.714 2366.425 C 5736.922 2212.425 5751.639 2121.425 5819.567 1910.425 C 5879.569 1722.425 5944.101 1440.425 5944.101 1365.425 C 5944.101 1311.425 5940.704 1302.425 5910.137 1276.425 C 5885.23 1255.425 5876.173 1238.425 5876.173 1212.425 C 5876.173 1192.425 5868.248 1136.425 5859.191 1086.425 C 5837.681 973.425 5837.681 864.425 5858.059 769.425 C 5905.608 550.425 6030.142 411.425 6280.342 300.425 C 6365.251 263.425 6381.101 259.425 6429.783 265.425 L 6485.257 271.425 L 6565.638 202.425 C 6691.304 92.425 6796.591 66.425 7098.869 66.425 C 7416.996 67.425 7543.794 96.425 7885.696 245.425 C 8122.311 349.425 8186.842 391.425 8286.469 508.425 C 8318.169 546.425 8416.663 640.425 8506.101 718.425 C 8686.109 875.425 8695.166 879.425 8824.229 868.425 C 8861.589 864.425 8965.745 846.425 9054.05 827.425 C 9323.496 769.425 9554.45 769.425 9778.611 827.425 C 9830.689 840.425 9956.355 887.425 10057.114 930.425 C 10333.353 1049.425 10379.77 1093.425 10520.153 1376.425 C 10608.459 1554.425 10603.931 1539.425 10625.441 1671.425 C 10660.537 1880.425 10691.104 1930.425 10798.656 1956.425 C 11156.408 2042.425 11302.452 2144.425 11549.256 2481.425 C 11705.489 2693.425 11782.474 2819.425 11817.57 2922.425 C 11853.798 3024.425 11869.647 3143.425 11861.722 3250.425 C 11853.798 3358.425 11798.323 3617.425 11763.228 3705.425 C 11732.66 3784.425 11734.924 3809.425 11776.813 3919.425 C 11811.909 4011.425 11813.041 4013.425 11798.323 4084.425 C 11767.756 4230.425 11768.888 4267.425 11801.72 4310.425 C 11818.702 4332.425 11871.912 4378.425 11919.461 4414.425 C 12031.541 4498.425 12213.814 4661.425 12272.684 4731.425 C 12374.575 4851.425 12436.842 5008.425 12450.428 5178.425 C 12467.41 5404.425 12360.99 5674.425 12165.132 5902.425 C 12136.829 5935.425 12114.187 5965.425 12114.187 5970.425 C 12114.187 5974.425 12144.754 5995.425 12182.114 6015.425 C 12274.948 6066.425 12354.197 6138.425 12393.822 6208.425 C 12424.389 6263.425 12425.521 6272.425 12424.389 6401.425 C 12424.389 6506.425 12418.728 6553.425 12400.614 6612.425 C 12363.254 6730.425 12288.534 6898.425 12237.588 6976.425 C 12177.586 7070.425 12054.184 7207.425 12008.899 7231.425 L 11972.671 7251.425 L 11972.671 7463.425 C 11972.671 7670.425 11971.539 7678.425 11940.971 7754.425 C 11869.647 7932.425 11783.606 8047.425 11660.204 8126.425 C 11629.637 8147.425 11599.069 8171.425 11593.409 8181.425 C 11586.616 8193.425 11592.277 8232.425 11611.523 8307.425 C 11678.318 8564.425 11685.111 8603.425 11691.904 8798.425 C 11702.093 9092.425 11666.997 9279.425 11566.238 9467.425 C 11470.007 9645.425 11383.965 9737.425 11133.766 9922.425 C 10872.244 10116.425 10845.073 10168.425 10806.581 10546.425 C 10785.071 10753.425 10774.882 10812.425 10736.389 10919.425 C 10680.915 11075.425 10574.495 11182.425 10435.244 11220.425 C 10396.752 11230.425 10311.842 11242.425 10246.179 11246.425 C 10027.679 11259.425 9999.375 11299.425 10059.378 11502.425 C 10093.342 11617.425 10095.606 11708.425 10065.039 11818.425 C 10023.15 11975.425 9924.655 12123.425 9771.818 12264.425 C 9564.639 12455.425 9339.346 12541.425 9055.182 12541.425 C 8852.532 12541.425 8686.109 12501.425 8514.026 12411.425 C 8330.622 12316.425 8307.979 12317.425 8163.067 12437.425 C 8079.29 12506.425 8037.401 12532.425 7954.756 12566.425 C 7805.316 12629.425 7688.707 12661.425 7534.737 12682.425 C 7420.393 12698.425 7393.222 12705.425 7353.597 12731.425 C 7223.403 12818.425 7157.74 12836.425 6923.389 12851.425 C 6741.117 12862.425 6685.643 12862.425 6643.754 12851.425 Z M 7098.869 12729.425 C 7296.991 12650.425 7452.092 12433.425 7493.981 12176.425 C 7521.152 12010.425 7527.945 11991.425 7576.626 11949.425 C 7620.779 11911.425 7621.911 11908.425 7617.383 11855.425 C 7610.59 11788.425 7572.098 11741.425 7483.792 11697.425 C 7415.864 11663.425 7355.862 11659.425 7192.835 11676.425 C 7131.701 11682.425 7106.794 11681.425 7093.208 11671.425 C 7070.566 11654.425 7071.698 11624.425 7096.605 11612.425 C 7128.304 11597.425 7380.768 11567.425 7478.131 11567.425 C 7707.953 11567.425 7824.562 11672.425 7826.826 11881.425 C 7827.958 11955.425 7824.562 11975.425 7797.391 12022.425 C 7773.616 12067.425 7757.766 12082.425 7720.406 12096.425 C 7654.743 12123.425 7634.365 12151.425 7625.308 12229.425 C 7616.251 12310.425 7576.626 12417.425 7522.284 12513.425 L 7481.528 12584.425 L 7525.68 12577.425 C 7549.455 12573.425 7619.647 12556.425 7681.914 12540.425 C 8014.759 12449.425 8243.448 12274.425 8305.715 12060.425 C 8328.358 11983.425 8322.697 11854.425 8287.601 11657.425 C 8262.694 11513.425 8258.166 11411.425 8277.412 11378.425 C 8313.64 11316.425 8362.321 11296.425 8407.606 11325.425 C 8427.985 11338.425 8429.117 11357.425 8435.91 11593.425 C 8441.57 11766.425 8448.363 11859.425 8458.552 11886.425 L 8474.402 11926.425 L 8604.596 11926.425 C 8711.016 11926.425 8742.716 11930.425 8778.944 11946.425 C 8837.814 11972.425 8841.211 11986.425 8794.794 12011.425 C 8763.094 12028.425 8741.584 12031.425 8649.881 12029.425 C 8499.309 12025.425 8482.327 12034.425 8430.249 12129.425 C 8394.021 12198.425 8390.625 12207.425 8407.606 12216.425 C 8417.796 12222.425 8457.42 12244.425 8495.912 12265.425 C 8819.7 12448.425 9213.68 12483.425 9465.012 12351.425 C 9635.963 12262.425 9864.652 12007.425 9934.844 11826.425 C 9960.883 11760.425 9969.94 11626.425 9951.826 11548.425 C 9933.712 11467.425 9873.709 11299.425 9863.52 11303.425 C 9858.992 11305.425 9766.158 11345.425 9657.473 11393.425 C 9448.03 11485.425 9297.457 11536.425 9208.019 11547.425 C 9163.867 11552.425 9148.017 11549.425 9126.506 11534.425 C 9069.9 11494.425 9124.242 11453.425 9261.229 11431.425 C 9346.139 11417.425 9548.789 11331.425 9572.564 11297.425 C 9580.489 11286.425 9601.999 11231.425 9618.981 11176.425 C 9651.813 11072.425 9690.305 11021.425 9733.326 11021.425 C 9751.44 11022.425 9798.989 11035.425 9849.935 11055.425 C 9863.52 11060.425 9871.445 11052.425 9880.502 11029.425 C 9911.07 10954.425 9930.316 10863.425 9946.166 10735.425 C 9955.223 10660.425 9967.676 10593.425 9975.601 10585.425 C 9994.847 10564.425 10039 10568.425 10058.246 10593.425 C 10078.624 10619.425 10080.889 10697.425 10066.171 10857.425 C 10059.378 10929.425 10045.793 10985.425 10018.622 11055.425 C 9985.79 11137.425 9982.394 11153.425 9997.111 11161.425 C 10016.357 11172.425 10082.021 11165.425 10209.951 11140.425 C 10439.772 11094.425 10571.099 10991.425 10639.027 10803.425 C 10665.065 10734.425 10668.462 10701.425 10677.519 10481.425 C 10689.972 10203.425 10689.972 10205.425 10598.27 10166.425 C 10549.589 10145.425 10522.418 10107.425 10477.133 9995.425 C 10457.886 9945.425 10457.886 9942.425 10477.133 9916.425 C 10503.171 9882.425 10531.475 9886.425 10662.801 9941.425 C 10836.016 10014.425 10868.848 10002.425 11140.558 9762.425 C 11359.059 9568.425 11417.929 9495.425 11486.989 9333.425 C 11551.52 9179.425 11565.106 9101.425 11563.973 8871.425 C 11563.973 8634.425 11545.859 8537.425 11466.611 8347.425 C 11396.419 8176.425 11339.812 8087.425 11250.375 8007.425 C 11165.465 7931.425 11156.408 7904.425 11213.014 7886.425 C 11259.432 7872.425 11335.284 7912.425 11407.74 7991.425 C 11439.44 8025.425 11473.403 8058.425 11484.725 8063.425 C 11510.763 8076.425 11565.106 8044.425 11646.619 7968.425 C 11768.888 7852.425 11831.155 7698.425 11831.155 7511.425 C 11831.155 7334.425 11775.681 7189.425 11665.865 7082.425 C 11616.051 7033.425 11553.784 6995.425 11544.727 7008.425 C 11541.331 7013.425 11530.01 7045.425 11519.82 7081.425 C 11450.761 7318.425 11320.566 7537.425 11185.843 7644.425 C 11125.841 7692.425 11083.952 7705.425 11014.892 7699.425 C 10949.229 7694.425 10959.418 7670.425 11080.556 7558.425 C 11205.089 7443.425 11257.167 7372.425 11320.566 7226.425 C 11426.986 6987.425 11426.986 6779.425 11322.831 6586.425 C 11260.564 6471.425 11223.203 6432.425 11098.67 6349.425 C 10974.136 6267.425 10935.644 6218.425 10958.286 6175.425 C 10968.475 6154.425 10978.664 6151.425 11025.081 6151.425 C 11098.67 6151.425 11184.711 6190.425 11240.185 6249.425 C 11283.206 6295.425 11454.157 6516.425 11477.932 6556.425 C 11484.725 6568.425 11500.574 6628.425 11514.16 6691.425 C 11527.745 6754.425 11542.463 6813.425 11548.124 6822.425 C 11553.784 6831.425 11583.22 6846.425 11612.655 6856.425 C 11677.186 6877.425 11731.528 6921.425 11815.305 7019.425 C 11892.29 7108.425 11907.008 7110.425 11995.313 7039.425 C 12158.339 6908.425 12284.005 6656.425 12284.005 6462.425 C 12284.005 6387.425 12279.477 6368.425 12250.042 6313.425 C 12209.285 6236.425 12103.997 6137.425 11999.842 6075.425 C 11890.026 6011.425 11679.45 5924.425 11586.616 5905.425 C 11510.763 5889.425 11499.442 5889.425 11403.212 5904.425 C 11249.242 5929.425 11201.693 5927.425 11163.201 5892.425 C 11137.162 5869.425 11129.237 5851.425 11122.444 5801.425 C 11112.255 5723.425 11087.348 5680.425 10943.568 5494.425 C 10755.636 5252.425 10672.99 5198.425 10400.148 5136.425 C 10316.371 5117.425 10220.14 5092.425 10187.308 5080.425 C 10117.117 5056.425 10053.717 5016.425 10053.717 4996.425 C 10053.717 4951.425 10323.163 4951.425 10479.397 4995.425 C 10661.669 5047.425 10788.467 5142.425 10996.778 5386.425 C 11184.711 5606.425 11269.621 5694.425 11342.077 5743.425 L 11403.212 5785.425 L 11530.01 5792.425 C 11642.09 5798.425 11668.129 5803.425 11771.152 5839.425 C 11902.479 5886.425 11990.785 5901.425 12019.088 5880.425 C 12053.052 5855.425 12175.321 5687.425 12205.889 5621.425 C 12362.122 5292.425 12319.101 4959.425 12084.751 4690.425 C 11994.181 4586.425 11905.875 4525.425 11748.51 4458.425 C 11566.238 4380.425 11569.634 4386.425 11612.655 4179.425 C 11637.562 4053.425 11629.637 3962.425 11585.484 3879.425 C 11493.782 3707.425 11337.548 3632.425 11071.499 3631.425 C 10915.265 3631.425 10875.641 3613.425 10925.454 3566.425 C 10965.079 3529.425 11054.517 3516.425 11189.24 3530.425 C 11334.152 3544.425 11454.157 3567.425 11544.727 3596.425 L 11618.315 3619.425 L 11634.165 3586.425 C 11719.075 3405.425 11732.66 3157.425 11666.997 2955.425 C 11629.637 2841.425 11515.292 2635.425 11414.533 2501.425 C 11192.636 2207.425 10909.605 2068.425 10503.171 2054.425 C 10118.249 2040.425 9883.899 2117.425 9612.188 2346.425 C 9436.709 2495.425 9355.196 2539.425 9335.95 2495.425 C 9324.628 2469.425 9349.535 2407.425 9389.16 2363.425 C 9435.577 2310.425 9520.486 2244.425 9663.134 2149.425 C 9725.401 2108.425 9795.593 2055.425 9819.367 2032.425 C 9856.728 1995.425 9861.256 1985.425 9861.256 1938.425 C 9861.256 1871.425 9821.632 1798.425 9749.176 1732.425 C 9647.284 1640.425 9539.732 1611.425 9291.797 1611.425 C 9176.32 1611.425 9127.639 1607.425 9102.732 1596.425 C 9041.597 1568.425 9048.39 1517.425 9117.449 1484.425 C 9145.753 1470.425 9188.773 1466.425 9306.514 1463.425 C 9573.696 1456.425 9734.458 1494.425 9851.067 1591.425 C 9939.373 1665.425 9997.111 1800.425 9997.111 1940.425 C 9997.111 1976.425 10000.508 1982.425 10015.225 1977.425 C 10065.039 1960.425 10245.047 1939.425 10387.695 1934.425 L 10546.192 1928.425 L 10488.454 1721.425 C 10358.259 1259.425 10181.648 1071.425 9778.611 967.425 C 9601.999 922.425 9459.351 908.425 9244.247 914.425 C 8970.273 922.425 8769.887 966.425 8547.99 1067.425 C 8457.42 1108.425 8276.28 1218.425 8276.28 1232.425 C 8276.28 1236.425 8298.922 1244.425 8326.093 1250.425 C 8433.645 1274.425 8569.5 1381.425 8644.221 1502.425 C 8660.071 1528.425 8687.242 1607.425 8706.488 1679.425 C 8724.602 1751.425 8748.376 1827.425 8758.566 1848.425 C 8768.755 1869.425 8780.076 1900.425 8784.604 1916.425 C 8791.397 1942.425 8797.058 1946.425 8826.493 1943.425 C 8930.649 1932.425 9112.921 1931.425 9150.281 1940.425 C 9193.302 1952.425 9275.947 2025.425 9287.268 2060.425 C 9298.59 2101.425 9280.476 2106.425 9185.377 2091.425 C 9076.693 2074.425 9015.558 2076.425 8902.345 2102.425 C 8777.812 2130.425 8681.581 2172.425 8612.521 2229.425 C 8495.912 2326.425 8432.513 2350.425 8387.228 2314.425 C 8349.868 2285.425 8361.189 2256.425 8472.138 2085.425 C 8606.861 1879.425 8618.182 1699.425 8504.969 1552.425 C 8444.967 1474.425 8219.674 1331.425 8157.407 1331.425 C 8125.707 1331.425 8005.702 1440.425 7992.116 1481.425 C 7980.795 1513.425 7984.191 1532.425 8010.23 1612.425 C 8050.987 1735.425 8060.044 1861.425 8030.609 1910.425 C 8019.287 1929.425 8004.57 1946.425 7996.645 1948.425 C 7989.852 1951.425 7969.474 1931.425 7952.492 1906.425 C 7929.849 1870.425 7916.264 1826.425 7894.753 1713.425 C 7861.922 1533.425 7815.505 1437.425 7719.274 1354.425 C 7636.629 1282.425 7628.704 1277.425 7422.657 1186.425 C 7224.535 1098.425 7174.721 1062.425 7216.61 1035.425 C 7230.196 1027.425 7266.424 1021.425 7308.312 1021.425 C 7472.471 1021.425 7642.289 1091.425 7791.73 1221.425 L 7889.093 1306.425 L 7937.774 1273.425 C 7964.945 1255.425 8037.401 1213.425 8098.536 1180.425 C 8159.671 1148.425 8254.77 1093.425 8309.112 1058.425 C 8364.586 1024.425 8450.627 976.425 8501.573 951.425 L 8593.275 905.425 L 8520.819 862.425 C 8481.195 839.425 8355.529 743.425 8241.184 650.425 C 7940.039 401.425 7874.375 362.425 7636.629 292.425 C 7416.996 228.425 7289.066 208.425 7121.512 214.425 C 6960.75 220.425 6879.237 236.425 6764.892 286.425 C 6660.736 331.425 6606.394 382.425 6544.127 493.425 C 6515.824 543.425 6488.653 585.425 6481.86 584.425 C 6458.086 584.425 6428.65 518.425 6420.726 450.425 L 6413.933 379.425 L 6312.042 448.425 C 5996.178 664.425 5936.176 831.425 6027.878 1246.425 C 6049.388 1345.425 6068.634 1441.425 6070.899 1459.425 L 6074.295 1491.425 L 6210.15 1410.425 C 6460.35 1262.425 6636.962 1200.425 6679.982 1246.425 C 6690.172 1257.425 6689.039 1266.425 6672.058 1291.425 C 6649.415 1326.425 6587.148 1365.425 6430.915 1441.425 C 6372.044 1470.425 6300.72 1507.425 6272.417 1524.425 C 6195.433 1570.425 6058.445 1680.425 6027.878 1721.425 C 6002.971 1754.425 5957.686 1886.425 5967.875 1896.425 C 5971.272 1898.425 6029.01 1884.425 6096.938 1865.425 C 6300.72 1808.425 6417.329 1790.425 6625.64 1784.425 C 7035.47 1772.425 7249.442 1831.425 7455.489 2016.425 C 7584.551 2131.425 7662.668 2259.425 7685.31 2395.425 C 7693.235 2438.425 7697.764 2446.425 7715.878 2443.425 C 7728.331 2441.425 7795.126 2437.425 7864.186 2434.425 C 7981.927 2429.425 7995.513 2430.425 8052.119 2453.425 C 8130.236 2485.425 8195.899 2545.425 8246.845 2630.425 C 8311.376 2740.425 8323.829 2789.425 8329.49 2973.425 C 8332.886 3066.425 8337.415 3141.425 8339.679 3141.425 C 8341.943 3141.425 8378.171 3121.425 8420.06 3097.425 C 8672.524 2954.425 8864.985 2907.425 9200.095 2909.425 C 9637.095 2910.425 9988.054 2968.425 10185.044 3072.425 C 10393.355 3181.425 10548.456 3384.425 10753.371 3816.425 C 10889.226 4100.425 10922.058 4319.425 10858.659 4500.425 C 10847.338 4533.425 10840.545 4563.425 10843.941 4566.425 C 10847.338 4569.425 10866.584 4571.425 10886.962 4571.425 C 10906.208 4571.425 10958.286 4580.425 11000.175 4592.425 C 11246.978 4659.425 11485.857 4864.425 11524.349 5043.425 C 11544.727 5137.425 11557.181 5165.425 11584.352 5180.425 C 11599.069 5188.425 11665.865 5196.425 11758.699 5201.425 C 11929.65 5210.425 11978.331 5225.425 12021.352 5281.425 C 12043.995 5310.425 12047.391 5324.425 12042.863 5369.425 C 12034.938 5431.425 12010.031 5471.425 11977.199 5471.425 C 11964.746 5471.425 11907.008 5453.425 11848.137 5431.425 C 11789.266 5409.425 11723.603 5391.425 11700.961 5391.425 C 11621.712 5391.425 11567.37 5433.425 11497.178 5544.425 C 11432.647 5647.425 11348.869 5694.425 11304.717 5651.425 C 11286.603 5634.425 11283.206 5615.425 11283.206 5558.425 C 11284.338 5469.425 11299.056 5429.425 11369.248 5321.425 C 11431.515 5225.425 11436.043 5196.425 11399.815 5103.425 C 11322.831 4900.425 11130.369 4765.425 10812.242 4690.425 C 10744.314 4674.425 10706.954 4659.425 10684.312 4640.425 L 10653.744 4612.425 L 10677.519 4559.425 C 10728.464 4448.425 10734.125 4423.425 10740.918 4326.425 C 10745.446 4247.425 10742.05 4205.425 10722.804 4123.425 C 10651.48 3819.425 10460.151 3461.425 10285.803 3306.425 C 10157.873 3192.425 9954.09 3112.425 9646.152 3055.425 C 9248.776 2982.425 8897.817 3012.425 8598.936 3143.425 C 8494.78 3189.425 8404.21 3250.425 8251.373 3376.425 C 8106.461 3496.425 8071.365 3515.425 8041.93 3488.425 C 8009.098 3459.425 8021.552 3412.425 8088.347 3327.425 C 8165.332 3226.425 8185.71 3166.425 8193.635 3021.425 C 8204.956 2801.425 8134.764 2671.425 7980.795 2630.425 C 7959.285 2625.425 7870.979 2617.425 7783.805 2612.425 C 7617.383 2604.425 7564.173 2590.425 7540.398 2551.425 C 7533.605 2540.425 7523.416 2494.425 7516.623 2449.425 C 7501.906 2336.425 7479.263 2282.425 7413.6 2196.425 C 7342.276 2101.425 7263.027 2040.425 7149.815 1991.425 C 6993.581 1923.425 6890.558 1907.425 6634.697 1906.425 C 6433.179 1906.425 6407.14 1908.425 6334.684 1929.425 C 6128.637 1990.425 5969.007 2098.425 5907.873 2219.425 C 5860.323 2312.425 5861.455 2438.425 5910.137 2526.425 C 5939.572 2579.425 6023.349 2665.425 6034.671 2654.425 C 6039.199 2650.425 6049.388 2628.425 6057.313 2606.425 C 6098.07 2488.425 6205.622 2418.425 6240.718 2486.425 C 6259.964 2523.425 6223.736 2629.425 6098.07 2911.425 C 5985.989 3161.425 5935.044 3304.425 5902.212 3461.425 C 5873.909 3594.425 5875.041 3937.425 5903.344 4071.425 C 5950.893 4298.425 6013.16 4474.425 6127.505 4697.425 C 6197.697 4833.425 6201.093 4838.425 6319.966 4948.425 C 6402.612 5023.425 6439.972 5064.425 6435.443 5075.425 C 6425.254 5098.425 6357.327 5114.425 6297.324 5106.425 C 6239.585 5098.425 6185.243 5057.425 6120.712 4970.425 L 6086.748 4926.425 L 6050.52 5026.425 C 6022.217 5100.425 6013.16 5144.425 6012.028 5197.425 C 6012.028 5322.425 6084.484 5485.425 6176.186 5566.425 C 6256.567 5637.425 6257.699 5637.425 6503.371 5527.425 C 6652.811 5461.425 6768.288 5417.425 6875.84 5386.425 C 6961.882 5362.425 7064.905 5325.425 7105.662 5305.425 C 7169.061 5274.425 7184.911 5270.425 7215.478 5278.425 C 7325.294 5305.425 7205.289 5398.425 6936.975 5491.425 C 6393.555 5680.425 6144.487 5869.425 6034.671 6176.425 C 6000.707 6272.425 5984.857 6552.425 5993.914 6926.425 C 6001.839 7316.425 6019.953 7400.425 6150.148 7691.425 C 6266.757 7948.425 6329.023 8060.425 6443.368 8213.425 C 6535.07 8337.425 6589.412 8434.425 6589.412 8476.425 C 6589.412 8517.425 6472.803 8468.425 6403.744 8399.425 L 6353.93 8348.425 L 6315.438 8369.425 C 6262.228 8398.425 6158.072 8496.425 6121.844 8551.425 C 6042.596 8672.425 6000.707 8862.425 6000.707 9101.425 C 6000.707 9362.425 6015.425 9464.425 6079.956 9631.425 C 6170.526 9868.425 6179.583 9969.425 6125.241 10126.425 C 6084.484 10242.425 6083.352 10261.425 6115.052 10319.425 C 6163.733 10407.425 6362.987 10512.425 6632.433 10590.425 C 6799.988 10639.425 6932.447 10661.425 7064.905 10661.425 C 7198.496 10661.425 7299.255 10642.425 7495.113 10582.425 C 7679.65 10524.425 7792.862 10501.425 7885.696 10501.425 C 7938.906 10501.425 7947.963 10504.425 7947.963 10520.425 C 7947.963 10550.425 7884.564 10589.425 7803.051 10610.425 C 7761.163 10620.425 7663.8 10645.425 7585.683 10664.425 C 7381.9 10716.425 7323.03 10728.425 7188.307 10745.425 C 6919.993 10780.425 6762.628 10756.425 6459.218 10633.425 C 6241.85 10546.425 6180.715 10556.425 6064.106 10697.425 C 5948.629 10837.425 5909.005 10945.425 5931.647 11057.425 C 5947.497 11133.425 6022.217 11266.425 6134.298 11416.425 C 6282.606 11613.425 6395.819 11709.425 6587.148 11800.425 C 6741.117 11873.425 6822.63 11952.425 6813.573 12019.425 C 6810.177 12042.425 6804.516 12046.425 6769.42 12049.425 C 6734.324 12052.425 6717.343 12044.425 6656.208 12001.425 C 6616.583 11973.425 6535.07 11918.425 6476.2 11879.425 C 6417.329 11839.425 6331.288 11781.425 6286.003 11748.425 C 6240.718 11715.425 6201.093 11690.425 6198.829 11692.425 C 6189.772 11701.425 6146.751 11806.425 6135.43 11849.425 C 6068.634 12108.425 6133.166 12398.425 6288.267 12534.425 C 6375.441 12611.425 6557.713 12689.425 6787.534 12747.425 C 6872.444 12768.425 7020.752 12760.425 7098.869 12729.425 Z" style="stroke-width: 263.678px; stroke-miterlimit: 21;"/>
    <path d="M 8317.036 11153.425 C 8309.112 11141.425 8366.85 11072.425 8452.892 10988.425 C 8543.462 10902.425 8583.086 10846.425 8612.521 10763.425 C 8686.109 10559.425 8646.485 10388.425 8506.101 10297.425 C 8383.832 10217.425 8139.293 10130.425 8082.686 10146.425 C 8070.233 10150.425 8024.948 10179.425 7984.191 10210.425 C 7883.432 10286.425 7857.393 10301.425 7826.826 10301.425 C 7788.334 10301.425 7782.673 10262.425 7813.24 10210.425 C 7826.826 10186.425 7869.847 10130.425 7908.339 10084.425 C 7968.342 10016.425 7986.456 9985.425 8017.023 9900.425 C 8046.458 9817.425 8062.308 9790.425 8097.404 9759.425 C 8122.311 9737.425 8150.614 9721.425 8160.803 9723.425 C 8192.503 9728.425 8191.37 9829.425 8158.539 9941.425 C 8143.821 9993.425 8132.5 10038.425 8134.764 10042.425 C 8138.161 10045.425 8192.503 10051.425 8255.902 10054.425 C 8444.967 10064.425 8559.311 10103.425 8669.128 10196.425 C 8758.566 10271.425 8777.812 10276.425 8891.024 10262.425 C 9028.011 10246.425 9145.753 10267.425 9208.019 10319.425 C 9239.719 10346.425 9280.476 10442.425 9266.89 10461.425 C 9256.701 10476.425 9218.209 10473.425 9140.092 10451.425 C 9101.6 10441.425 9024.615 10427.425 8970.273 10421.425 C 8915.931 10415.425 8854.796 10409.425 8836.682 10407.425 L 8802.718 10403.425 L 8807.247 10552.425 C 8811.775 10749.425 8794.794 10823.425 8716.677 10926.425 C 8652.146 11010.425 8545.726 11101.425 8472.138 11132.425 C 8414.399 11157.425 8328.358 11168.425 8317.036 11153.425 Z" style="stroke-width: 263.678px; stroke-miterlimit: 21;"/>
    <path d="M 6861.123 10316.425 C 6841.876 10296.425 6854.33 10260.425 6907.54 10180.425 C 6943.768 10126.425 6996.978 9991.425 6996.978 9952.425 C 6996.978 9949.425 6929.05 9946.425 6845.273 9946.425 C 6700.361 9946.425 6691.304 9945.425 6664.133 9922.425 C 6627.905 9892.425 6626.773 9863.425 6660.736 9852.425 C 6675.454 9847.425 6780.742 9845.425 6896.218 9848.425 C 7289.066 9858.425 7505.302 9801.425 7687.574 9641.425 C 7797.391 9545.425 7886.829 9425.425 8004.57 9220.425 C 8117.782 9022.425 8164.199 8963.425 8319.301 8818.425 C 8499.309 8650.425 8526.48 8603.425 8547.99 8426.425 C 8567.236 8280.425 8534.405 8181.425 8420.06 8030.425 C 8327.226 7909.425 8327.226 7900.425 8411.003 7759.425 C 8448.363 7695.425 8482.327 7625.425 8486.855 7603.425 C 8497.044 7546.425 8457.42 7439.425 8403.078 7376.425 C 8313.64 7272.425 8098.536 7195.425 7875.507 7189.425 C 7775.88 7185.425 7748.709 7196.425 7704.556 7259.425 C 7623.043 7377.425 7550.587 7435.425 7441.903 7471.425 C 7384.165 7490.425 7377.372 7490.425 7352.465 7476.425 C 7304.916 7449.425 7318.501 7425.425 7441.903 7318.425 C 7617.383 7163.425 7652.479 7084.425 7636.629 6868.425 L 7628.704 6751.425 L 7570.965 6751.425 C 7396.618 6751.425 7259.631 6673.425 7178.118 6530.425 C 7149.815 6482.425 7138.493 6471.425 7123.776 6476.425 C 7027.545 6511.425 6831.687 6549.425 6710.55 6557.425 C 6433.179 6575.425 6239.585 6448.425 6219.207 6235.425 C 6212.414 6166.425 6220.339 6156.425 6275.814 6166.425 C 6301.852 6171.425 6347.137 6205.425 6442.236 6291.425 C 6597.337 6431.425 6635.83 6451.425 6750.174 6451.425 C 6847.537 6451.425 6883.765 6438.425 7017.356 6358.425 C 7163.4 6270.425 7200.76 6277.425 7301.52 6411.425 C 7369.447 6500.425 7455.489 6578.425 7523.416 6609.425 C 7570.965 6631.425 7594.74 6635.425 7670.593 6635.425 C 7907.207 6634.425 8152.878 6467.425 8288.733 6215.425 C 8355.529 6091.425 8370.246 6021.425 8363.454 5861.425 C 8355.529 5688.425 8324.961 5587.425 8244.58 5463.425 C 8172.124 5352.425 8161.935 5318.425 8197.031 5301.425 C 8260.43 5271.425 8375.907 5323.425 8404.21 5393.425 C 8441.57 5488.425 8480.063 5676.425 8478.93 5764.425 C 8478.93 5816.425 8483.459 5858.425 8491.384 5866.425 C 8531.008 5909.425 8794.794 5941.425 8945.366 5922.425 C 9117.449 5899.425 9287.268 5837.425 9416.331 5750.425 C 9560.111 5653.425 9611.056 5670.425 9680.116 5840.425 C 9722.005 5944.425 9759.365 6001.425 9825.028 6063.425 C 9899.748 6134.425 9985.79 6167.425 10171.459 6197.425 C 10258.632 6211.425 10341.277 6228.425 10357.127 6235.425 L 10385.43 6248.425 L 10353.731 6267.425 C 10326.56 6283.425 10299.389 6286.425 10195.233 6286.425 C 9864.652 6285.425 9615.585 6142.425 9527.279 5904.425 L 9509.165 5851.425 L 9467.276 5867.425 C 9037.068 6029.425 8851.4 6058.425 8615.918 6002.425 C 8492.516 5972.425 8495.912 5971.425 8487.987 6044.425 C 8456.288 6341.425 8178.917 6627.425 7834.751 6717.425 C 7765.691 6735.425 7750.973 6743.425 7753.238 6758.425 C 7754.37 6768.425 7762.295 6844.425 7769.088 6926.425 L 7781.541 7076.425 L 7935.51 7077.425 C 8115.518 7077.425 8200.427 7093.425 8341.943 7153.425 C 8679.317 7295.425 8778.944 7657.425 8542.329 7880.425 L 8489.12 7930.425 L 8544.594 7993.425 C 8606.861 8065.425 8671.392 8171.425 8701.959 8251.425 C 8732.527 8332.425 8730.262 8454.425 8698.563 8507.425 L 8673.656 8548.425 L 8849.136 8560.425 C 9335.95 8593.425 9589.546 8684.425 9589.546 8828.425 C 9589.546 8871.425 9538.6 8971.425 9517.09 8971.425 C 9510.297 8971.425 9458.219 8935.425 9402.745 8890.425 C 9283.872 8797.425 9215.944 8759.425 9114.053 8730.425 C 8877.439 8665.425 8691.77 8697.425 8489.12 8839.425 C 8341.943 8943.425 8260.43 9040.425 8089.479 9316.425 C 7974.002 9503.425 7914 9587.425 7846.072 9656.425 C 7689.839 9817.425 7466.81 9915.425 7209.817 9936.425 L 7121.512 9943.425 L 7149.815 9963.425 C 7188.307 9989.425 7186.043 10015.425 7138.493 10099.425 C 7092.076 10181.425 7018.488 10256.425 6943.768 10300.425 C 6883.765 10336.425 6880.369 10336.425 6861.123 10316.425 Z" style="stroke-width: 263.678px; stroke-miterlimit: 21;"/>
    <path d="M 9522.75 10245.425 C 9480.862 10198.425 9480.862 10159.425 9526.147 10002.425 C 9573.696 9831.425 9586.15 9735.425 9566.903 9671.425 C 9560.111 9646.425 9528.411 9577.425 9496.712 9517.425 C 9462.748 9453.425 9436.709 9389.425 9433.313 9362.425 C 9426.52 9295.425 9460.484 9264.425 9615.585 9194.425 C 9733.326 9141.425 9752.572 9128.425 9890.691 9007.425 C 10058.246 8859.425 10161.269 8731.425 10264.293 8546.425 C 10599.402 7937.425 10512.228 7372.425 10020.886 6958.425 C 9895.22 6853.425 9768.422 6777.425 9594.074 6705.425 C 9408.406 6628.425 9371.046 6593.425 9436.709 6555.425 C 9461.616 6541.425 9475.201 6540.425 9529.543 6550.425 C 9745.779 6588.425 10028.811 6757.425 10181.648 6938.425 C 10282.407 7057.425 10292.596 7061.425 10406.941 7010.425 C 10534.871 6953.425 10559.778 6933.425 10652.612 6812.425 C 10763.56 6669.425 10808.845 6628.425 10852.998 6633.425 C 10884.698 6636.425 10885.83 6637.425 10885.83 6697.425 C 10885.83 6784.425 10814.506 6911.425 10729.597 6975.425 C 10646.951 7037.425 10551.853 7086.425 10462.415 7112.425 C 10421.658 7124.425 10386.562 7135.425 10384.298 7136.425 C 10382.034 7138.425 10396.752 7159.425 10415.998 7184.425 C 10507.7 7305.425 10566.57 7481.425 10586.949 7701.425 C 10599.402 7829.425 10594.874 7928.425 10567.703 8083.425 C 10556.381 8143.425 10569.967 8165.425 10644.687 8216.425 C 10684.312 8243.425 10745.446 8289.425 10780.542 8318.425 C 10868.848 8391.425 10984.325 8431.425 11109.991 8431.425 C 11199.429 8431.425 11287.735 8464.425 11287.735 8497.425 C 11287.735 8533.425 11066.97 8553.425 10943.568 8527.425 C 10828.092 8503.425 10740.918 8457.425 10626.573 8360.425 L 10524.682 8275.425 L 10482.793 8387.425 C 10421.658 8549.425 10361.656 8646.425 10262.029 8748.425 C 10172.591 8839.425 10152.212 8867.425 10139.759 8914.425 C 10134.098 8936.425 10139.759 8948.425 10175.987 8984.425 C 10243.915 9049.425 10369.581 9247.425 10377.505 9302.425 C 10388.827 9378.425 10385.43 9376.425 10559.778 9376.425 C 10705.822 9376.425 10720.54 9374.425 10780.542 9349.425 C 10816.77 9334.425 10868.848 9308.425 10898.283 9291.425 C 10956.022 9255.425 11028.478 9241.425 11055.649 9261.425 C 11081.688 9280.425 11089.613 9337.425 11068.102 9365.425 C 11027.346 9420.425 10786.203 9484.425 10540.532 9503.425 C 10462.415 9509.425 10396.752 9516.425 10393.355 9519.425 C 10389.959 9521.425 10385.43 9589.425 10382.034 9669.425 C 10374.109 9846.425 10360.524 9878.425 10243.915 9986.425 C 10166.93 10058.425 10072.964 10112.425 10000.508 10126.425 C 9966.544 10132.425 9963.147 10131.425 9963.147 10108.425 C 9963.147 10090.425 9986.922 10062.425 10046.925 10011.425 C 10144.288 9928.425 10188.44 9854.425 10217.876 9726.425 C 10267.689 9515.425 10230.329 9342.425 10086.549 9119.425 L 10029.943 9032.425 L 9909.938 9149.425 C 9761.629 9295.425 9695.966 9374.425 9678.984 9433.425 C 9666.53 9472.425 9667.663 9491.425 9685.777 9559.425 C 9702.758 9626.425 9705.023 9665.425 9699.362 9803.425 C 9691.437 9987.425 9666.53 10107.425 9613.321 10208.425 C 9575.96 10277.425 9557.846 10285.425 9522.75 10245.425 Z" style="stroke-width: 263.678px; stroke-miterlimit: 21;"/>
    <path d="M 6865.651 9257.425 C 6835.084 9236.425 6852.066 9215.425 6940.371 9166.425 C 7016.224 9124.425 7058.112 9090.425 7178.118 8971.425 C 7270.952 8879.425 7291.33 8852.425 7282.273 8832.425 C 7278.877 8823.425 7243.781 8774.425 7205.289 8723.425 C 7109.058 8599.425 7064.905 8470.425 7064.905 8314.425 C 7064.905 8205.425 7113.587 8034.425 7166.797 7954.425 C 7179.25 7935.425 7189.439 7918.425 7189.439 7915.425 C 7189.439 7913.425 7137.361 7911.425 7073.962 7911.425 C 6862.255 7911.425 6744.514 7876.425 6598.469 7772.425 C 6441.104 7660.425 6387.894 7579.425 6455.822 7557.425 C 6498.842 7543.425 6541.863 7563.425 6646.019 7646.425 C 6742.249 7722.425 6850.933 7782.425 6939.239 7807.425 C 6996.978 7823.425 7011.695 7823.425 7199.628 7808.425 C 7426.053 7789.425 7547.191 7786.425 7557.38 7801.425 C 7570.965 7821.425 7510.963 7859.425 7454.357 7866.425 C 7423.789 7870.425 7380.768 7882.425 7359.258 7893.425 C 7321.898 7911.425 7317.369 7918.425 7286.802 8024.425 C 7233.592 8204.425 7221.139 8278.425 7227.931 8362.425 C 7239.253 8493.425 7292.463 8642.425 7354.729 8723.425 C 7396.618 8776.425 7440.771 8791.425 7559.644 8791.425 C 7641.157 8791.425 7669.46 8795.425 7710.217 8814.425 C 7780.409 8845.425 7806.448 8881.425 7804.183 8942.425 C 7804.183 8970.425 7799.655 8995.425 7796.259 8998.425 C 7793.994 9001.425 7744.181 8996.425 7687.574 8986.425 C 7524.548 8960.425 7438.507 8985.425 7244.913 9117.425 C 7066.037 9239.425 6999.242 9271.425 6923.389 9271.425 C 6904.143 9271.425 6878.104 9265.425 6865.651 9257.425 Z" style="stroke-width: 263.678px; stroke-miterlimit: 21;"/>
    <path d="M 7650.214 5264.425 C 7635.497 5252.425 7642.289 5214.425 7677.385 5120.425 C 7735.124 4963.425 7719.274 4831.425 7630.968 4749.425 C 7583.419 4705.425 7575.494 4704.425 7398.882 4722.425 C 7240.385 4739.425 7186.043 4724.425 7077.359 4636.425 C 7013.96 4585.425 6984.524 4569.425 6932.447 4556.425 C 6701.493 4500.425 6634.697 4475.425 6634.697 4447.425 C 6634.697 4426.425 6701.493 4407.425 6770.553 4408.425 C 6853.198 4411.425 6959.618 4441.425 7144.154 4514.425 C 7335.483 4591.425 7368.315 4593.425 7500.774 4535.425 L 7591.344 4496.425 L 7806.448 4497.425 C 8238.92 4500.425 8407.606 4537.425 8645.353 4678.425 C 8807.247 4775.425 8842.343 4817.425 8842.343 4912.425 C 8842.343 5001.425 8795.926 4988.425 8654.41 4859.425 C 8596.672 4807.425 8535.537 4763.425 8493.648 4743.425 C 8346.472 4674.425 8064.572 4611.425 7900.414 4611.425 C 7780.409 4611.425 7770.22 4617.425 7806.448 4661.425 C 7867.582 4735.425 7884.564 4794.425 7884.564 4941.425 C 7884.564 5095.425 7872.111 5146.425 7821.165 5197.425 C 7767.955 5250.425 7675.121 5287.425 7650.214 5264.425 Z" style="stroke-width: 263.678px; stroke-miterlimit: 21;"/>
    <path d="M 9620.113 5045.425 C 9596.339 5005.425 9616.717 4911.425 9693.701 4708.425 C 9754.836 4546.425 9762.761 4515.425 9767.29 4426.425 C 9771.818 4341.425 9769.554 4318.425 9749.176 4270.425 C 9715.212 4191.425 9649.549 4129.425 9558.978 4089.425 C 9491.051 4060.425 9470.673 4056.425 9365.385 4053.425 C 9191.038 4047.425 9058.579 4077.425 8941.97 4148.425 C 8885.364 4182.425 8855.928 4174.425 8769.887 4102.425 C 8600.068 3959.425 8384.964 3877.425 8078.158 3836.425 C 7840.411 3805.425 7606.061 3822.425 7383.033 3888.425 C 7171.325 3950.425 7058.112 4009.425 6912.068 4132.425 C 6798.856 4227.425 6779.61 4237.425 6735.457 4221.425 C 6690.172 4204.425 6682.247 4171.425 6713.946 4126.425 C 6745.646 4081.425 6893.954 3983.425 7051.32 3903.425 C 7171.325 3842.425 7175.854 3838.425 7188.307 3796.425 C 7208.685 3725.425 7204.157 3593.425 7179.25 3545.425 C 7154.343 3497.425 7120.379 3472.425 6979.996 3401.425 C 6820.366 3320.425 6788.667 3285.425 6839.612 3245.425 C 6859.99 3229.425 6880.369 3226.425 6961.882 3227.425 C 7153.211 3229.425 7268.688 3296.425 7316.237 3434.425 C 7336.615 3496.425 7338.88 3519.425 7333.219 3634.425 L 7326.426 3763.425 L 7356.994 3758.425 C 7373.976 3754.425 7423.789 3745.425 7466.81 3737.425 C 7703.424 3691.425 8065.704 3691.425 8298.922 3735.425 C 8526.48 3778.425 8742.716 3857.425 8862.721 3940.425 C 8919.327 3980.425 8955.555 3992.425 8955.555 3971.425 C 8955.555 3965.425 8995.18 3943.425 9043.861 3923.425 L 9131.035 3886.425 L 9289.533 3886.425 C 9468.408 3886.425 9534.072 3897.425 9652.945 3947.425 C 9794.461 4006.425 9881.634 4101.425 9907.673 4226.425 C 9923.523 4304.425 9914.466 4372.425 9854.463 4627.425 C 9787.668 4907.425 9761.629 4972.425 9686.909 5044.425 C 9651.813 5078.425 9639.359 5078.425 9620.113 5045.425 Z" style="stroke-width: 263.678px; stroke-miterlimit: 21;"/>
    <path style="stroke: rgb(0, 0, 0); fill: rgb(8, 8, 8);" d="M -586.086 293.21 L -435.178 12811.323 C -288.434 12805.528 283.264 12816.144 850.042 12815.22 C 991.582 12814.989 974.899 12733.206 1148.962 12554.643 C 1886.948 11797.577 3073.872 10547.885 4066.747 10169.994 C 4987.489 9819.558 5503.422 7127.778 5404.947 5044.212 C 5295.759 2733.989 3149.783 1051.585 3027.842 956.06 C 2602.014 622.484 -269.591 -326.188 -586.086 293.21 Z" transform="matrix(-1, 0, 0, -1, 4830.808472, 12903.262451)"/>
    <path style="fill: rgb(216, 216, 216); stroke: rgb(0, 0, 0);" d="M 3257.459 5558.874 L 1090.795 5436.021"/>
  </g>
  <g transform="matrix(0.030562, 0, 0, -0.029009, 140.261749, 460.337891)" fill="#000000" stroke="none" style="">
    <path d="M4555 2539 c-81 -9 -210 -20 -1425 -129 -371 -33 -701 -63 -732 -66 l-58 -6 -50 -89 -51 -88 46 -81 c26 -44 50 -82 55 -85 4 -2 234 16 511 40 592 53 1040 93 1506 135 186 17 340 34 344 38 4 4 28 44 54 89 l47 82 -49 83 c-56 95 -51 93 -198 77z"/>
    <path d="M4465 2093 c-137 -12 -504 -45 -815 -73 -311 -28 -713 -64 -895 -80 -181 -16 -354 -32 -382 -36 l-53 -5 0 -60 c0 -70 -20 -66 216 -44 180 17 573 52 1394 125 612 54 783 70 788 75 2 1 2 29 0 61 l-3 59 -250 -22z"/>
    <path d="M4425 1879 c-183 -17 -556 -51 -1590 -143 -432 -39 -491 -47 -503 -63 -7 -10 -31 -50 -53 -89 l-39 -71 46 -82 c26 -45 49 -83 53 -85 3 -2 148 9 321 24 337 31 695 63 1500 135 278 25 512 45 521 45 10 0 37 35 68 90 l52 90 -48 85 -48 84 -45 -1 c-25 0 -130 -9 -235 -19z"/>
    <path d="M4605 1459 c-78 -9 -1360 -124 -1935 -174 -390 -35 -350 -24 -350 -95 0 -45 4 -60 14 -60 8 0 162 13 343 30 180 16 582 52 893 80 311 28 688 62 838 75 150 14 281 25 292 25 18 0 20 7 20 65 0 56 -2 65 -17 64 -10 -1 -54 -6 -98 -10z"/>
    <path d="M4395 1229 c-263 -25 -1474 -134 -1780 -160 -132 -11 -249 -24 -261 -29 -11 -4 -42 -45 -68 -91 l-46 -82 48 -86 49 -86 39 3 c47 4 1247 111 1709 152 182 17 394 35 471 42 l142 11 51 89 52 88 -48 85 -48 85 -55 -1 c-30 -1 -145 -10 -255 -20z"/>
    <path d="M4305 784 c-711 -66 -1921 -174 -1953 -174 l-32 0 0 -67 1 -68 199 -123 c109 -67 203 -122 209 -122 6 0 11 7 11 15 0 13 93 15 780 15 709 0 780 -1 788 -16 5 -9 14 -15 19 -13 5 2 96 58 201 124 l192 120 0 173 0 172 -27 -1 c-16 -1 -190 -16 -388 -35z"/>
    <path d="M2960 144 c25 -14 82 -46 127 -71 46 -24 83 -51 83 -59 0 -12 54 -14 350 -14 273 0 350 3 350 13 0 6 56 43 125 80 69 38 125 71 125 73 0 2 -271 4 -602 4 l-603 0 45 -26z"/>
  </g>
  <path style="stroke: rgb(0, 0, 0); stroke-width: 4px;" d="M 288.051 379.532 L 289.112 364.93 L 209.533 364.829 L 207.904 380.602 L 213.058 387.693 L 282.283 382.421 L 288.051 379.532 Z"/>
</svg>